# xmcd CD database file
#
# Track frame offsets:
#	150
#	11788
#	23650
#	33870
#	44415
#	57580
#	71830
#	82725
#	92543
#	104748
#	118250
#	128103
#	140633
#	153660
#	165768
#	178665
#	193433
#	207713
#	217665
#	229425
#	243113
#	255540
#	270960
#	281810
#	295805
#	306458
#	318523
#
# Disc length: 4425 seconds
#
# Revision: 4
# Processed by: cddbd v1.5.1PL2 Copyright (c) Steve Scherf et al.
# Submitted via: CD2WAV32(JP) R3.22
#
DISCID=9411471b
DTITLE=Tommy Dorsey - Well Git It
DYEAR=1945
DGENRE=Jazz
TTITLE0=Well, Git It (featuring Gene Krupa)
TTITLE1=That's It (#1)
TTITLE2=You Rhyme With Everything That's Beautiful
TTITLE3=Somebody Loves Me
TTITLE4=The Night We Called It A Day
TTITLE5=Paramount On Parade
TTITLE6=Mandy, Make Up Your Mind
TTITLE7=Not So Quiet, Please
TTITLE8=Boogie Woogie
TTITLE9=March Of The Toys
TTITLE10=Chicago
TTITLE11=It's A Cryin' Shame
TTITLE12=Like Somone In Love
TTITLE13=On The Sunny Side Of The Street
TTITLE14=Opus One
TTITLE15=Any Old Time
TTITLE16=Tico Tico
TTITLE17=Let Me Love You Tonight
TTITLE18=You're Driving Me Crazy
TTITLE19=Love Letters
TTITLE20=It's Never Too Late To Pray
TTITLE21=Song Of India
TTITLE22=Deep River
TTITLE23=Heatwave
TTITLE24=Backstage At The Ballet
TTITLE25=That's It!
TTITLE26=Well, Git It (featuring Buddy Rich)
EXTD=
EXTT0=
EXTT1=
EXTT2=
EXTT3=
EXTT4=
EXTT5=
EXTT6=
EXTT7=
EXTT8=
EXTT9=
EXTT10=
EXTT11=
EXTT12=
EXTT13=
EXTT14=
EXTT15=
EXTT16=
EXTT17=
EXTT18=
EXTT19=
EXTT20=
EXTT21=
EXTT22=
EXTT23=
EXTT24=
EXTT25=
EXTT26=
PLAYORDER=
